# xmcd
#
# Track frame offsets: 
#        150
#        25920
#        58977
#        83140
#        110255
#        142620
#        172556
#        200245
#
# Disc length: 3022 seconds
#
# Revision: 2
# Processed by: cddbd v1.5.2PL0 Copyright (c) Steve Scherf et al.
# Submitted via: ExactAudioCopy v1.0b1
#
DISCID=600bcc08
DTITLE=IndianDigitalAudio.com - Aage Aage Dekhiye - Jaswinder Singh
DYEAR=2000
DGENRE=Ghazal
TTITLE0=Ibtadaa - E - Ishq Hai
TTITLE1=Pyar Karne Ki
TTITLE2=Yun Na Reh Reh Kar
TTITLE3=Kitni Haseen Raat Hai
TTITLE4=Chhod Kar Ungli
TTITLE5=Mere Izhare Mohabbat
TTITLE6=Ek Hasti Hai
TTITLE7=Dekh Laila
EXTD=
EXTT0=
EXTT1=
EXTT2=
EXTT3=
EXTT4=
EXTT5=
EXTT6=
EXTT7=
PLAYORDER=
